<?xml version="1.0" standalone="no"?>
<!DOCTYPE svg PUBLIC "-//W3C//DTD SVG 20010904//EN"
 "http://www.w3.org/TR/2001/REC-SVG-20010904/DTD/svg10.dtd">
<svg version="1.0" xmlns="http://www.w3.org/2000/svg"
 width="500.000000pt" height="500.000000pt" viewBox="0 0 500.000000 500.000000"
 preserveAspectRatio="xMidYMid meet">
<metadata>
Created by potrace 1.14, written by Peter Selinger 2001-2017
</metadata>
<g transform="translate(0.000000,500.000000) scale(0.100000,-0.100000)"
fill="#000000" stroke="none">
<path d="M957 4715 c-58 -20 -108 -67 -134 -125 -14 -31 -15 -246 -15 -2090 0
-2263 -5 -2091 62 -2158 71 -71 -60 -66 1510 -67 778 -1 1432 1 1453 6 54 10
114 55 145 108 l27 46 3 793 2 792 -21 51 c-25 57 -86 114 -138 129 -23 6
-472 10 -1228 10 l-1193 0 0 290 0 290 1198 0 1197 0 51 24 c57 27 106 82 123
141 9 29 11 250 9 826 l-3 786 -30 49 c-19 30 -49 60 -79 79 l-49 30 -1426 2
c-1157 1 -1433 -1 -1464 -12z m2427 -950 c0 -184 -3 -338 -7 -341 -5 -5 -1886
-9 -1939 -5 -5 1 -8 154 -8 341 l0 340 978 0 977 0 -1 -335z m0 -2520 l0 -340
-977 -3 -977 -2 0 345 0 345 977 -2 977 -3 0 -340z"/>
</g>
</svg>
